<svg xmlns="http://www.w3.org/2000/svg" viewBox="0 0 36 36">
  <g fill="#20b0e3" stroke="null">
    <path stroke-width=".03" d="M13.37 3.16a1.36 1.32 10.34 0 1 1.13.21 2.83 2.75 10.34 0 1 .61.62l2.26 2.76 1.91.35 3.1-1.78a2.86 2.77 10.34 0 1 .78-.37 1.36 1.32 10.34 0 1 1.58 1.4 1.36 1.32 10.34 0 1-.45.82 7.6 7.39 10.34 0 1-.68.41 3.93 3.82 10.34 0 1-.43.23l1.67.3a2.88 2.8 10.34 0 1 1.8 1.23 2.9 2.81 10.34 0 1 .56 2.07l-1.37 7.47a5.5 5.35 10.34 0 1-.27 1.12 3.02 2.93 10.34 0 1-1.67 1.58 2.92 2.84 10.34 0 1-1.61.13L10 19.47a5.77 5.6 10.34 0 1-1.2-.28 3 2.92 10.34 0 1-1.6-1.64 2.91 2.83 10.34 0 1-.19-1.58l1.35-7.4a6.1 5.92 10.34 0 1 .2-1.07 3 2.9 10.34 0 1 3.1-1.83l1.75.32c-.25-.24-.45-.52-.66-.78a1.36 1.32 10.34 0 1-.24-1.14 1.36 1.32 10.34 0 1 .85-.9m-1.23 4.98a1.36 1.32 10.34 0 0-1.23.74 1.84 1.78 10.34 0 0-.09.5L9.7 15.54A1.36 1.32 10.34 0 0 10.4 17a1.8 1.74 10.34 0 0 .56.2l10.87 1.98a1.36 1.32 10.34 0 0 1.41-.53 1.9 1.85 10.34 0 0 .3-.83l1.04-5.72a2.28 2.22 10.34 0 0 .1-.63 1.36 1.32 10.34 0 0-.7-1.04 2.19 2.13 10.34 0 0-.8-.27l-10.4-1.9a4.54 4.41 10.34 0 0-.63-.1zm0 0"/>
    <path stroke-width=".52" d="M12.92 11.31c.15.22.31.43.45.66.24.39.45.69.68 1.03.03-.55.76-.46.19-.85-.24.17-.55.35-.8.48l-.7.35c-1.09.53-.25 2 .84 1.47 0 0 1.14-.57 1.62-.87.25-.16.42-.4.5-.71.08-.32-.16-.66-.27-.8-.38-.54-.7-1.13-1.03-1.61-.63-1.03-2.1-.17-1.48.85zM21.98 12.96l-.65.46c-.36.28-.67.48-1 .73.16-.53-.55-.7.12-.86.17.24.4.51.57.72l.54.58c.83.88-.47 1.95-1.3 1.07 0 0-.87-.93-1.2-1.38a1.14 1.14 0 0 1-.23-.84c.04-.32.38-.56.53-.66.55-.36 1.05-.8 1.54-1.14.95-.73 2.03.59 1.08 1.32z"/>
  </g>
  <path fill="#66757F" d="m26.62 9.86.44-5.43a.5.5 0 0 1 .54-.46h.03a.5.5 0 0 1 .46.54l-.44 5.43a.5.5 0 0 1-.54.46h-.03a.5.5 0 0 1-.46-.54z"/>
  <path fill="#292F33" d="M14.46 20.55v2.06s-2.06 0-2.06 2.06v3.09a2.22 2.22 0 0 0 2.06 2.06h10.3a2.22 2.22 0 0 0 2.06-2.06V22.6a2.22 2.22 0 0 0-2.06-2.06h-10.3z"/>
  <path fill="#292F33" d="m21.62 22.15-10.14-1.78c-1.02-.18-1.02-.18-.84-1.2.1-.56.64-.93 1.2-.83l10.14 1.78c.56.1.93.64.83 1.2-.17 1.01-.17 1.01-1.19.83z"/>
  <path fill="#292F33" d="M23.97 18.51c-.2.95-.57 1.88-2.15 1.58-1.59-.3-1.84 1.27-.85 1.54.99.28 3.35.67 4.04-.46.68-1.12.8-2.2.73-2.68-.07-.48-1.62-.68-1.77.02z"/>
  <path fill="#DD2E44" d="m22.14 22.5-11.2-1.97a.5.5 0 0 1-.4-.58v-.03a.5.5 0 0 1 .59-.4l11.19 1.97c.27.05.45.3.4.58v.03a.5.5 0 0 1-.58.4z"/>
  <path fill="#292F33" d="m27.78 8.85-1.8 10.14c-.17 1.02-.17 1.02-1.18.84-.56-.1-.94-.64-.84-1.2L25.75 8.5c.1-.56.63-.93 1.2-.84 1 .18 1 .18.83 1.2zm1.02-7.72-.73 4.15c-.1.5-.18 1.04-1.2.86-.55-.1-.9-.74-.78-1.44l.66-3.72c.17-.6.64-1.04 1.2-.94 1.02.18.94.58.85 1.1z"/>
  <path fill="#DD2E44" d="M28.27 8.4 26.3 19.6a.5.5 0 0 1-.58.4h-.03a.5.5 0 0 1-.4-.59l1.97-11.19a.5.5 0 0 1 .57-.4h.03c.28.05.46.31.41.58zM29.55.72l-.94 5.37a.5.5 0 0 1-.58.4H28a.5.5 0 0 1-.4-.58l.93-5.37a.5.5 0 0 1 .58-.4h.03c.28.05.46.31.41.58z"/>
  <path fill="#292F33" d="m24.24 17.91-7.7-1.35c-.76-.14-.76-.14-.63-.9.07-.42.48-.7.9-.62l7.7 1.35c.42.08.7.48.63.9-.13.76-.13.76-.9.62z"/>
  <path fill="#DD2E44" d="M21.8 21.4c1.02.18 3.04.53 3.57-2.51.54-3.04 1.56-2.87 1.02.18s-2.3 3.78-4.77 3.34c-2.03-.36-1.85-1.37.17-1.01zm-10.65-1.88c2.03.35 2.35 1.47.32 1.1-.9-.16-1.01.22-1.29.99-.26.72-.63 1.81-1.18 3.33-.4 1.11-1.31.62-.98-.35.57-1.64 1.1-3.06 1.44-3.97.35-.92.63-1.28 1.7-1.1z"/>
  <path fill="#DD2E44" d="M8.93 23.65H8.9a.5.5 0 0 0-.64.3l-2.12 5.83a.5.5 0 0 0 .3.64h.02a.5.5 0 0 0 .64-.29l2.13-5.84a.5.5 0 0 0-.3-.64z"/>
  <path fill="#66757F" d="m6.46 30.43-3.9-1.42a.5.5 0 0 1-.3-.64l.01-.03a.5.5 0 0 1 .64-.3l3.9 1.42c.26.1.4.38.3.64v.03a.5.5 0 0 1-.65.3z"/>
  <path fill="#DD2E44" d="m12.22 30.72 3.06-3.06a.5.5 0 0 0 0-.7l-.02-.03a.5.5 0 0 0-.7 0l-3.06 3.06a.5.5 0 0 0 0 .7l.02.03c.2.2.51.2.7 0zm18.75 3.22h-.06a1 1 0 0 1-1-1v-3.15a1 1 0 0 1 1-1h.06a1 1 0 0 1 1 1v3.15a1 1 0 0 1-1 1z"/>
  <path fill="#DD2E44" d="M11.91 33.94h-.06a1 1 0 0 1-1-1v-3.15a1 1 0 0 1 1-1h.06a1 1 0 0 1 1 1v3.15a1 1 0 0 1-1 1zm13.33-6.19h2.09a.5.5 0 0 0 .5-.5v-.03a.5.5 0 0 0-.5-.5h-2.09a.5.5 0 0 0-.5.5v.03c0 .28.23.5.5.5z"/>
  <path fill="#DD2E44" d="m30.05 30.66-3.06-3.06a.5.5 0 0 1 0-.71l.02-.02c.2-.2.51-.2.7 0l3.07 3.06c.19.2.19.51 0 .7l-.03.03a.5.5 0 0 1-.7 0z"/>
  <path fill="#292F33" d="M10 15.53c.76.33 2.1.96 2.4 1.08 0 0 .15-.92.51-.92 0 0 .14-.48.23-.69.1-.2.37-.14.4.25.02.4-.1.53-.1.53s.34.44.14 1.03c0 0 .46.07.36.65-.09.57.07 1-.34 1.12-.41.12-1.97.55-2-.07-.02-.62-.4-1.1-1.17-1.56-.75-.46-1.3-.96-1.21-1.21.09-.26.14-.49.78-.21z"/>
  <path fill="#DD2E44" d="M25.29 24.67H13.93a.5.5 0 0 1-.5-.5v-.03c0-.28.22-.5.5-.5h11.36c.27 0 .5.22.5.5v.03a.5.5 0 0 1-.5.5z"/>
  <circle cx="20.12" cy="31.36" r="4.64" fill="#66757F"/>
  <circle cx="11.88" cy="33.42" r="2.58" fill="#66757F"/>
  <circle cx="30.94" cy="33.94" r="2.06" fill="#66757F"/>
  <circle cx="20.12" cy="31.36" r="2.58" fill="#CCD6DD"/>
  <circle cx="11.88" cy="33.42" r="1.54" fill="#CCD6DD"/>
  <circle cx="30.94" cy="33.94" r="1.03" fill="#292F33"/>
  <g fill="#292F33">
    <circle cx="20.64" cy="30.47" r=".52"/>
    <circle cx="19.61" cy="32.26" r=".52"/>
    <circle cx="19.23" cy="30.85" r=".52"/>
    <circle cx="21.02" cy="31.88" r=".52"/>
  </g>
  <circle cx="11.88" cy="33.42" r=".77" fill="#292F33"/>
  <circle cx="30.94" cy="33.94" r=".52" fill="#66757F"/>
</svg>
